#N canvas 0 25 1920 1121 10;
#X obj 33 104 loadbang;
#X obj 133 354 r bela_trill;
#X obj 223 145 r bela_trillCreated;
#X obj 517 130 dac~ 1 2;
#X obj 496 36 loadbang;
#X obj 223 180 print;
#X msg 54 145 new mybar1 1 BAR 32;
#X obj 54 179 s bela_setTrill;
#X obj 48 242 s bela_setTrill;
#X msg 47 209 new mybar2 1 BAR 35;
#X obj 35 306 s bela_setTrill;
#X text 18 58 Aqui inicializamos los sensores trill a bela_setTrill;
#X text 18 72 se manda el id del sensor \, bus 1 \, tipo BAR/SQUARE y la direccion, f 64;
#X text 274 177 bela_trillCreated recibe un mensaje éxito que imprimimos al inicio, f 32;
#X text 597 69 Suena el primer acorde para mostrar que el audio está correcto también, f 20;
#X text 230 323 Una vez inicializado \, se imprimen los valores de los tres sensores, f 26;
#X obj 517 99 play-acordes;
#X obj 281 636 dac~ 1 2;
#X obj 282 589 play-acordes;
#X msg 272 524 2;
#X msg 230 528 1;
#X msg 316 521 3;
#X obj 190 436 unpack f f f;
#X obj 301 434 unpack f f f;
#X obj 133 395 route mysquare mybar1 mybar2;
#X obj 299 472 detecta-color;
#X msg 354 521 4;
#X msg 395 523 5;
#X msg 438 522 6;
#X msg 481 523 7;
#X msg 525 520 8;
#X msg 35 277 new mysquare 1 SQUARE;
#X obj 60 493 detecta-manodrcha;
#X msg 547 69 1;
#X connect 0 0 6 0;
#X connect 0 0 9 0;
#X connect 0 0 31 0;
#X connect 1 0 24 0;
#X connect 2 0 5 0;
#X connect 4 0 33 0;
#X connect 4 0 16 0;
#X connect 6 0 7 0;
#X connect 9 0 8 0;
#X connect 16 0 3 0;
#X connect 16 0 3 1;
#X connect 18 0 17 0;
#X connect 18 0 17 1;
#X connect 19 0 18 1;
#X connect 20 0 18 1;
#X connect 21 0 18 1;
#X connect 22 1 25 0;
#X connect 23 1 25 1;
#X connect 24 0 32 0;
#X connect 24 1 22 0;
#X connect 24 2 23 0;
#X connect 25 0 20 0;
#X connect 25 1 19 0;
#X connect 25 2 21 0;
#X connect 25 3 26 0;
#X connect 25 4 27 0;
#X connect 25 5 28 0;
#X connect 25 6 29 0;
#X connect 25 7 30 0;
#X connect 26 0 18 1;
#X connect 27 0 18 1;
#X connect 28 0 18 1;
#X connect 29 0 18 1;
#X connect 30 0 18 1;
#X connect 31 0 10 0;
#X connect 32 0 18 0;
#X connect 33 0 16 1;
