#N canvas 0 25 1920 1121 12;
#X obj 153 54 inlet;
#X obj 153 237 f;
#X obj 194 237 + 1;
#X obj 153 200 t b;
#X obj 153 166 select 1;
#X obj 153 108 unpack f f f f;
#X msg 200 200 0;
#X obj 129 277 moses 60;
#X obj 182 386 outlet;
#X text 323 68 recibimos la posición del sensor de la mano derecha;
#X text 321 157 Nos quedamos con el primer valor (bus) que vale 0 si nadie lo toca y 1 si hay contacto. Si vale 1 \, lanzamos un mensaje;
#X text 321 239 Este mensaje incrementa un contador que evita que se disparen muchos mensajes de acordes seguidos y muy rápido. Cuando el contador llega a 60 \, consideramos que se quiere tocar un acorde.;
#X text 321 369 En ese caso \, mandamos un mensaje bang a la salida.;
#X connect 0 0 5 0;
#X connect 1 0 2 0;
#X connect 1 0 7 0;
#X connect 2 0 1 1;
#X connect 3 0 1 0;
#X connect 4 0 3 0;
#X connect 5 0 4 0;
#X connect 6 0 1 0;
#X connect 7 1 6 0;
#X connect 7 1 8 0;
