#N canvas 155 25 1920 1121 10;
#X obj 26 29 loadbang;
#X obj 21 362 inlet;
#X obj 40 532 outlet~;
#X obj 68 77 soundfiler;
#X text 24 6 Leemos los acordes y guardamos en variables;
#X msg 68 52 read -resize Do-mayor.wav do-mayor;
#N canvas 0 50 450 250 (subpatch) 0;
#X array do-mayor 217408 float 2;
#X coords 0 1 217408 -1 100 100 1 0 0;
#X restore 728 18 graph;
#N canvas 0 50 450 250 (subpatch) 0;
#X array dosos-menor 212764 float 2;
#X coords 0 1 212764 -1 100 100 1 0 0;
#X restore 730 136 graph;
#X obj 67 130 soundfiler;
#X obj 59 182 soundfiler;
#X msg 66 102 read -resize Dosos-menor.wav dosos-menor;
#X msg 60 155 read -resize Fasos-menor.wav fasos-menor;
#N canvas 0 50 450 250 (subpatch) 0;
#X array fasos-menor 221548 float 2;
#X coords 0 1 221548 -1 100 100 1 0 0;
#X restore 731 257 graph;
#X obj 284 314 inlet;
#X obj 284 348 route 1 2 3 4 5 6 7 8;
#X obj 40 501 tabplay~;
#X msg 47 396 set do-mayor;
#X text 255 286 Esta parte recibe los mensajes y dispara los acordes;
#X text 100 503 Renombrar los 8 setters para que seleccionen los acordes necesarios para cada canción, f 39;
#X text 23 338 Bang;
#X text 318 328 Selector de acordes;
#N canvas 0 50 450 250 (subpatch) 0;
#X array fa-mayor 237390 float 2;
#X coords 0 1 237390 -1 100 100 1 0 0;
#X restore 847 17 graph;
#X obj 48 235 soundfiler;
#N canvas 0 50 450 250 (subpatch) 0;
#X array la-mayor 205932 float 2;
#X coords 0 1 205932 -1 100 100 1 0 0;
#X restore 849 135 graph;
#X obj 33 283 soundfiler;
#X msg 49 208 read -resize Fa-mayor.wav fa-mayor;
#X msg 34 256 read -resize La-mayor.wav la-mayor;
#X obj 303 65 soundfiler;
#N canvas 0 50 450 250 (subpatch) 0;
#X array mi-menor 247781 float 2;
#X coords 0 1 247781 -1 100 100 1 0 0;
#X restore 850 255 graph;
#X obj 323 125 soundfiler;
#X msg 323 100 read -resize Sol-mayor.wav sol-mayor;
#N canvas 0 50 450 250 (subpatch) 0;
#X array sol-mayor 249380 float 2;
#X coords 0 1 249380 -1 100 100 1 0 0;
#X restore 852 377 graph;
#X msg 303 40 read -resize Mi-menor.wav mi-menor;
#X obj 323 181 soundfiler;
#X msg 323 156 read -resize La-menor.wav la-menor;
#X obj 287 233 soundfiler;
#X msg 287 208 read -resize Mi-mayor.wav mi-mayor;
#N canvas 0 50 450 250 (subpatch) 0;
#X array mi-mayor 243019 float 2;
#X coords 0 1 243019 -1 100 100 1 0 0;
#X restore 729 379 graph;
#X msg 132 396 set mi-menor;
#X msg 220 397 set fa-mayor;
#N canvas 0 50 450 250 (subpatch) 0;
#X array la-menor 208616 float 2;
#X coords 0 1 208616 -1 100 100 1 0 0;
#X restore 621 18 graph;
#X msg 493 447 set la-mayor;
#X msg 592 446 set dosos-menor;
#X msg 308 397 set sol-mayor;
#X msg 308 447 set la-menor;
#X msg 398 449 set mi-menor;
#X connect 0 0 5 0;
#X connect 0 0 10 0;
#X connect 0 0 11 0;
#X connect 0 0 25 0;
#X connect 0 0 26 0;
#X connect 0 0 32 0;
#X connect 0 0 30 0;
#X connect 0 0 34 0;
#X connect 0 0 36 0;
#X connect 1 0 15 0;
#X connect 5 0 3 0;
#X connect 10 0 8 0;
#X connect 11 0 9 0;
#X connect 13 0 14 0;
#X connect 14 0 16 0;
#X connect 14 1 38 0;
#X connect 14 2 39 0;
#X connect 14 3 43 0;
#X connect 14 4 44 0;
#X connect 14 5 45 0;
#X connect 14 6 41 0;
#X connect 14 7 42 0;
#X connect 15 0 2 0;
#X connect 16 0 15 0;
#X connect 25 0 22 0;
#X connect 26 0 24 0;
#X connect 30 0 29 0;
#X connect 32 0 27 0;
#X connect 34 0 33 0;
#X connect 36 0 35 0;
#X connect 38 0 15 0;
#X connect 39 0 15 0;
#X connect 41 0 15 0;
#X connect 42 0 15 0;
#X connect 43 0 15 0;
#X connect 44 0 15 0;
#X connect 45 0 15 0;
#X coords 0 0 0.25 0.25 0 0 0;
