#N canvas 1372 28 976 1003 12;
#X obj 470 243 array define grainArray;
#X obj 467 128 soundfiler;
#X floatatom 468 159 10 0 0 0 - - - 0;
#X msg 467 93 read -resize hola.wav grainArray;
#X obj 467 53 loadbang;
#X floatatom 563 150 5 0 0 0 - - - 0;
#X obj 467 188 s duracion;
#X obj 563 210 s ratio;
#X obj 563 179 / 1000;
#X obj 95 113 sampler;
#X obj 89 199 bela/audio-out~ 0 1;
#X obj 58 408 loadbang;
#X obj 58 488 s bela_setTrill;
#X msg 58 447 new myflex 1 FLEX;
#X obj 57 528 r bela_trillCreated;
#X obj 57 557 print bela_trillCreated;
#X obj 303 492 list;
#X obj 303 424 metro 200;
#X obj 303 398 loadbang;
#X text 354 486 Throttle printing;
#X obj 396 385 r bela_trill;
#X text 488 382 This receives the reading from the Trill sensor.;
#X text 437 533 [<num_touches> <position> <size>];
#X text 488 438 Which will be prepended with the <sensor_id>;
#X obj 396 437 route myflex;
#X obj 303 557 list split 1;
#X obj 303 525 route 1;
#X obj 303 588 s start;
#X obj 90 40 r start;
#X connect 1 0 2 0;
#X connect 1 1 5 0;
#X connect 2 0 6 0;
#X connect 3 0 1 0;
#X connect 4 0 3 0;
#X connect 5 0 8 0;
#X connect 8 0 7 0;
#X connect 9 0 10 0;
#X connect 9 0 10 1;
#X connect 11 0 13 0;
#X connect 13 0 12 0;
#X connect 14 0 15 0;
#X connect 16 0 26 0;
#X connect 17 0 16 0;
#X connect 18 0 17 0;
#X connect 20 0 24 0;
#X connect 24 0 16 1;
#X connect 25 0 27 0;
#X connect 26 0 25 0;
#X connect 28 0 9 0;
