#N canvas 804 23 976 1003 12;
#X obj 575 241 array define grainArray;
#X obj 572 126 soundfiler;
#X floatatom 573 157 10 0 0 0 - - - 0;
#X msg 572 91 read -resize hola.wav grainArray;
#X obj 572 51 loadbang;
#X floatatom 668 148 5 0 0 0 - - - 0;
#X obj 572 186 s duracion;
#X obj 668 208 s ratio;
#X obj 668 177 / 1000;
#X obj 95 113 sampler;
#X obj 89 199 bela/audio-out~ 0 1;
#X obj 58 391 loadbang;
#X obj 58 499 s bela_setTrill;
#X text 198 455 <bus> is the i2c bus that yout sensor is connected to;
#X text 199 505 <address> is the address of the sensor. If unspecified \, the;
#X text 222 517 default address for the device type will be used;
#X text 198 475 <device> the type of sensor you are connecting: BAR SQUARE;
#X text 209 484 CRAFT RING HEX;
#X text 107 359 >>> See full documentation in examples/Trill/general-pd <<<;
#X text 203 390 First initialise the Trill sensor;
#X text 197 425 Message: [new <sensor_id> <bus> <device> <address=255>(;
#X msg 58 436 new myflex 1 FLEX;
#X text 57 553 device that was successfully initialised. The message;
#X text 57 563 will contain: <sensor_id> <device> <mode> <address>;
#X text 56 542 bela_trillCreated will receive a message for each;
#X obj 61 595 r bela_trillCreated;
#X obj 61 624 print bela_trillCreated;
#X obj 261 783 list;
#X obj 261 715 metro 200;
#X obj 261 689 loadbang;
#X text 312 777 Throttle printing;
#X obj 354 676 r bela_trill;
#X text 446 673 This receives the reading from the Trill sensor.;
#X text 395 824 [<num_touches> <position> <size>];
#X text 446 729 Which will be prepended with the <sensor_id>;
#X obj 354 728 route myflex;
#X obj 261 848 list split 1;
#X obj 261 816 route 1;
#X obj 261 879 s start;
#X obj 90 40 r start;
#X connect 1 0 2 0;
#X connect 1 1 5 0;
#X connect 2 0 6 0;
#X connect 3 0 1 0;
#X connect 4 0 3 0;
#X connect 5 0 8 0;
#X connect 8 0 7 0;
#X connect 9 0 10 0;
#X connect 9 0 10 1;
#X connect 11 0 21 0;
#X connect 21 0 12 0;
#X connect 25 0 26 0;
#X connect 27 0 37 0;
#X connect 28 0 27 0;
#X connect 29 0 28 0;
#X connect 31 0 35 0;
#X connect 35 0 27 1;
#X connect 36 0 38 0;
#X connect 37 0 36 0;
#X connect 39 0 9 0;
