#N canvas 0 0 757 667 12;
#X obj 95 530 tabread4~ grainArray;
#X obj 94 492 line~;
#X obj 94 382 pack f f f;
#X msg 94 420 \$1 \, \$2 \$3;
#X obj 96 332 t f f;
#X floatatom 96 305 5 0 0 0 - - - 0;
#X floatatom 227 401 10 0 0 0 - - - 0;
#X msg 198 493 0 \, 45474 470;
#X obj 167 458 print;
#X obj 330 266 r duracion;
#X obj 153 59 loadbang;
#X obj 155 265 metro 1000;
#X obj 330 170 bela/analog-in~ 1;
#X obj 227 311 *;
#X obj 145 355 +;
#X obj 324 236 snapshot~;
#X obj 203 107 metro 10;
#X obj 229 458 /;
#X obj 247 430 r ratio;
#X obj 173 227 * 1000;
#X obj 174 195 snapshot~;
#X obj 330 137 bela/analog-in~ 0;
#X obj 40 141 inlet;
#X obj 96 586 outlet~;
#X obj 75 242 *;
#X obj 69 171 r duracion;
#X connect 0 0 23 0;
#X connect 1 0 0 0;
#X connect 2 0 3 0;
#X connect 3 0 1 0;
#X connect 4 0 2 0;
#X connect 4 1 14 0;
#X connect 5 0 4 0;
#X connect 6 0 17 0;
#X connect 7 0 1 0;
#X connect 9 0 13 1;
#X connect 10 0 11 0;
#X connect 10 0 16 0;
#X connect 11 0 5 0;
#X connect 12 0 15 0;
#X connect 13 0 6 0;
#X connect 13 0 14 1;
#X connect 14 0 2 1;
#X connect 15 0 13 0;
#X connect 16 0 15 0;
#X connect 16 0 20 0;
#X connect 17 0 2 2;
#X connect 18 0 17 1;
#X connect 19 0 11 1;
#X connect 20 0 19 0;
#X connect 21 0 20 0;
#X connect 22 0 24 0;
#X connect 24 0 5 0;
#X connect 25 0 24 1;
