#N canvas 0 25 1854 977 12;
#X obj 153 54 inlet;
#X obj 153 237 f;
#X obj 194 237 + 1;
#X obj 153 200 t b;
#X obj 153 166 select 1;
#X obj 153 108 unpack f f f f;
#X msg 200 200 0;
#X obj 186 404 outlet;
#X text 323 68 recibimos la posición del sensor de la mano derecha;
#X text 321 157 Nos quedamos con el primer valor (bus) que vale 0 si nadie lo toca y 1 si hay contacto. Si vale 1 \, lanzamos un mensaje;
#X text 327 213 Este mensaje incrementa un contador que evita que se disparen muchos mensajes de acordes seguidos y muy rápido. Cuando el contador llega a 60 \, consideramos que se quiere tocar un acorde.;
#X text 321 369 En ese caso \, mandamos un mensaje bang a la salida.;
#X obj 87 349 print pon:;
#X obj 186 354 bng 20 250 50 0 empty empty empty 0 -10 0 12 #fcfcfc #000000 #000000;
#X obj 182 324 spigot;
#X obj 250 300 tgl 20 0 empty empty empty 0 -10 0 12 #fcfcfc #000000 #000000 0 1;
#X floatatom 96 272 5 0 0 0 - - - 0;
#X obj 288 331 print togle:;
#X msg 50 154 1;
#X msg 82 124 0;
#X obj 262 229 bng 20 250 50 0 empty empty empty 0 -10 0 12 #fcfcfc #000000 #000000;
#X msg 255 265 1;
#X obj 109 302 moses 30;
#X connect 0 0 5 0;
#X connect 1 0 2 0;
#X connect 1 0 16 0;
#X connect 1 0 22 0;
#X connect 2 0 1 1;
#X connect 3 0 1 0;
#X connect 4 0 3 0;
#X connect 4 1 20 0;
#X connect 5 0 4 0;
#X connect 6 0 1 0;
#X connect 13 0 7 0;
#X connect 13 0 15 0;
#X connect 14 0 13 0;
#X connect 15 0 14 1;
#X connect 15 0 17 0;
#X connect 18 0 4 0;
#X connect 19 0 4 0;
#X connect 20 0 21 0;
#X connect 21 0 15 0;
#X connect 22 1 12 0;
#X connect 22 1 14 0;
#X connect 22 1 6 0;
