#N canvas 0 25 1854 977 12;
#X obj 72 86 inlet;
#X obj 103 312 outlet;
#X obj 666 77 inlet;
#X obj 166 316 outlet;
#X obj 227 317 outlet;
#X obj 295 320 outlet;
#X obj 561 302 outlet;
#X obj 504 196 moses 0.05;
#X obj 624 306 outlet;
#X obj 685 307 outlet;
#X obj 753 310 outlet;
#X obj 485 242 print amarillo2;
#X obj 611 245 print azul2;
#X obj 713 246 print rojo2;
#X obj 805 246 print verde2;
#X obj 141 204 moses 0.2;
#X obj 230 161 moses 0.6;
#X obj 498 153 moses 0.17;
#X obj 593 151 moses 0.37;
#X obj 777 149 moses 0.87;
#X obj 688 151 moses 0.64;
#X obj 599 194 moses 0.2;
#X obj 694 194 moses 0.45;
#X obj 790 193 moses 0.68;
#X floatatom 452 359 5 0 0 0 - - - 0;
#X obj 509 390 < 0.17;
#X obj 444 389 >= 0.05;
#X obj 503 420 &;
#X obj 41 163 moses 0.2;
#X obj 135 161 moses 0.4;
#X obj 236 204 moses 0.4;
#X obj 332 203 moses 0.6;
#X obj 319 159 moses 1;
#X obj 46 206 moses 0;
#X connect 0 0 16 0;
#X connect 0 0 28 0;
#X connect 0 0 29 0;
#X connect 0 0 32 0;
#X connect 2 0 17 0;
#X connect 2 0 18 0;
#X connect 2 0 19 0;
#X connect 2 0 20 0;
#X connect 7 1 6 0;
#X connect 7 1 11 0;
#X connect 15 1 3 0;
#X connect 16 0 30 0;
#X connect 17 0 7 0;
#X connect 18 0 21 0;
#X connect 19 0 23 0;
#X connect 20 0 22 0;
#X connect 21 1 8 0;
#X connect 21 1 12 0;
#X connect 22 1 9 0;
#X connect 22 1 13 0;
#X connect 23 1 10 0;
#X connect 23 1 14 0;
#X connect 24 0 26 0;
#X connect 24 0 25 0;
#X connect 25 0 27 1;
#X connect 26 0 27 0;
#X connect 28 0 33 0;
#X connect 29 0 15 0;
#X connect 30 1 4 0;
#X connect 31 1 5 0;
#X connect 32 0 31 0;
#X connect 33 1 1 0;
