#N canvas 0 25 1920 1119 12;
#X obj 27 18 adc~ 3;
#X obj 27 63 *~ 10;
#X obj 85 132 print mic1;
#X obj 209 67 *~ 10;
#X obj 209 22 adc~ 4;
#X obj 218 124 print mic2;
#X obj 148 322 +~, f 4;
#X obj 220 488 dac~ 1 2;
#X obj 26 96 threshold~ 0.5 10 0.1 10;
#X obj 209 95 threshold~ 0.5 10 0.1 10;
#X obj 665 7 loadbang;
#X obj 700 74 soundfiler;
#X obj 699 127 soundfiler;
#N canvas 0 50 450 250 (subpatch) 0;
#X array beat2 105591 float 2;
#A color 0;
#A width 2;
#X coords 0 1 105591 -1 100 100 1 0 0;
#X restore 773 288 graph;
#N canvas 0 50 450 250 (subpatch) 0;
#X array beat1 103477 float 2;
#A color 0;
#A width 2;
#X coords 0 1 103477 -1 100 100 1 0 0;
#X restore 666 288 graph;
#X msg 698 99 read -resize beat2.wav beat2;
#X obj 38 222 tabplay~ beat1;
#X obj 159 197 tabplay~ beat2;
#X msg 700 46 read -resize beat1.wav beat1;
#N canvas 0 50 450 250 (subpatch) 0;
#X array beat4 105591 float 2;
#A color 0;
#A width 2;
#X coords 0 1 105591 -1 100 100 1 0 0;
#X restore 776 420 graph;
#N canvas 0 50 450 250 (subpatch) 0;
#X array beat3 103477 float 2;
#A color 0;
#A width 2;
#X coords 0 1 103477 -1 100 100 1 0 0;
#X restore 669 420 graph;
#X obj 701 184 soundfiler;
#X obj 700 237 soundfiler;
#X msg 701 156 read -resize beat3.wav beat3;
#X msg 699 209 read -resize beat4.wav beat4;
#X obj 277 186 *~ 10;
#X obj 277 220 threshold~ 0.5 10 0.1 10;
#X obj 290 254 print mic3;
#X obj 280 293 tabplay~ beat3;
#X obj 276 157 adc~ 5;
#X obj 280 439 +~;
#X obj 412 290 *~ 10;
#X obj 412 324 threshold~ 0.5 10 0.1 10;
#X obj 411 261 adc~ 6;
#X obj 425 358 print mic4;
#X obj 415 397 tabplay~ beat4;
#X connect 0 0 1 0;
#X connect 1 0 8 0;
#X connect 3 0 9 0;
#X connect 4 0 3 0;
#X connect 6 0 7 0;
#X connect 8 0 2 0;
#X connect 8 0 16 0;
#X connect 9 0 5 0;
#X connect 9 0 17 0;
#X connect 10 0 18 0;
#X connect 10 0 15 0;
#X connect 10 0 23 0;
#X connect 10 0 24 0;
#X connect 15 0 12 0;
#X connect 16 0 6 0;
#X connect 17 0 6 1;
#X connect 18 0 11 0;
#X connect 23 0 21 0;
#X connect 24 0 22 0;
#X connect 25 0 26 0;
#X connect 26 0 27 0;
#X connect 26 0 28 0;
#X connect 28 0 30 0;
#X connect 29 0 25 0;
#X connect 30 0 7 1;
#X connect 31 0 32 0;
#X connect 32 0 34 0;
#X connect 32 0 35 0;
#X connect 33 0 31 0;
#X connect 35 0 30 1;
